<?xml version="1.0" encoding="UTF-8"?>
<svg class="animated" version="1.1" viewBox="0 0 500 500" xmlns="http://www.w3.org/2000/svg">
<style>svg#freepik_stories-blog-post:not(.animated) .animable {opacity: 0;}svg#freepik_stories-blog-post.animated #freepik--Shadow--inject-1--inject-195 {animation: 1s 1 forwards cubic-bezier(.36,-0.01,.5,1.38) lightSpeedLeft;animation-delay: 0s;}svg#freepik_stories-blog-post.animated #freepik--graphics-2--inject-1--inject-195 {animation: 1s 1 forwards cubic-bezier(.36,-0.01,.5,1.38) lightSpeedRight;animation-delay: 0s;}svg#freepik_stories-blog-post.animated #freepik--graphics-1--inject-1--inject-195 {animation: 1s 1 forwards cubic-bezier(.36,-0.01,.5,1.38) zoomOut;animation-delay: 0s;}svg#freepik_stories-blog-post.animated #freepik--Character--inject-1--inject-195 {animation: 1s 1 forwards cubic-bezier(.36,-0.01,.5,1.38) zoomIn;animation-delay: 0s;}            @keyframes lightSpeedLeft {              from {                transform: translate3d(-50%, 0, 0) skewX(20deg);                opacity: 0;              }              60% {                transform: skewX(-10deg);                opacity: 1;              }              80% {                transform: skewX(2deg);              }              to {                opacity: 1;                transform: translate3d(0, 0, 0);              }            }                    @keyframes lightSpeedRight {              from {                transform: translate3d(50%, 0, 0) skewX(-20deg);                opacity: 0;              }              60% {                transform: skewX(10deg);                opacity: 1;              }              80% {                transform: skewX(-2deg);              }              to {                opacity: 1;                transform: translate3d(0, 0, 0);              }            }                    @keyframes zoomOut {                0% {                    opacity: 0;                    transform: scale(1.5);                }                100% {                    opacity: 1;                    transform: scale(1);                }            }                    @keyframes zoomIn {                0% {                    opacity: 0;                    transform: scale(0.5);                }                100% {                    opacity: 1;                    transform: scale(1);                }            }</style>
<g class="animable" style="transform-origin:246.39px 422.16px">
<ellipse class="animable" cx="246.39" cy="422.16" rx="135.21" ry="27.04" fill="#c9cedd" style="transform-origin:246.39px 422.16px"/>
<ellipse class="animable" cx="246.39" cy="422.16" rx="135.21" ry="27.04" fill="#fff" opacity=".5" style="transform-origin:246.39px 422.16px"/>
</g>
<g class="animable" style="transform-origin:341.185px 157.475px">
<rect class="animable" x="286.41" y="62.45" width="109.55" height="119.53" rx="6.03" fill="#fff" stroke="#263238" stroke-linecap="round" stroke-linejoin="round" style="transform-origin:341.185px 122.215px"/>
<path class="animable" d="m292.44 62.45h97.48a6 6 0 0 1 6 6v6.26a0 0 0 0 1 0 0h-109.51a0 0 0 0 1 0 0v-6.23a6 6 0 0 1 6.03-6.03z" fill="#263238" stroke="#263238" stroke-linecap="round" stroke-linejoin="round" style="transform-origin:341.165px 68.58px"/>
<line class="animable" x1="292.38" x2="336.46" y1="126.27" y2="126.27" fill="none" stroke="#263238" stroke-linecap="round" stroke-linejoin="round" style="transform-origin:314.42px 126.27px"/>
<line class="animable" x1="292.38" x2="336.46" y1="131.96" y2="131.96" fill="none" stroke="#263238" stroke-linecap="round" stroke-linejoin="round" style="transform-origin:314.42px 131.96px"/>
<line class="animable" x1="292.38" x2="336.46" y1="137.65" y2="137.65" fill="none" stroke="#263238" stroke-linecap="round" stroke-linejoin="round" style="transform-origin:314.42px 137.65px"/>
<line class="animable" x1="292.38" x2="336.46" y1="143.34" y2="143.34" fill="none" stroke="#263238" stroke-linecap="round" stroke-linejoin="round" style="transform-origin:314.42px 143.34px"/>
<line class="animable" x1="292.38" x2="336.46" y1="149.03" y2="149.03" fill="none" stroke="#263238" stroke-linecap="round" stroke-linejoin="round" style="transform-origin:314.42px 149.03px"/>
<line class="animable" x1="292.38" x2="336.46" y1="154.73" y2="154.73" fill="none" stroke="#263238" stroke-linecap="round" stroke-linejoin="round" style="transform-origin:314.42px 154.73px"/>
<line class="animable" x1="292.38" x2="336.46" y1="160.42" y2="160.42" fill="none" stroke="#263238" stroke-linecap="round" stroke-linejoin="round" style="transform-origin:314.42px 160.42px"/>
<line class="animable" x1="292.38" x2="336.46" y1="166.11" y2="166.11" fill="none" stroke="#263238" stroke-linecap="round" stroke-linejoin="round" style="transform-origin:314.42px 166.11px"/>
<line class="animable" x1="292.38" x2="336.46" y1="171.8" y2="171.8" fill="none" stroke="#263238" stroke-linecap="round" stroke-linejoin="round" style="transform-origin:314.42px 171.8px"/>
<line class="animable" x1="344.21" x2="388.29" y1="126.27" y2="126.27" fill="none" stroke="#263238" stroke-linecap="round" stroke-linejoin="round" style="transform-origin:366.25px 126.27px"/>
<line class="animable" x1="344.21" x2="388.29" y1="131.96" y2="131.96" fill="none" stroke="#263238" stroke-linecap="round" stroke-linejoin="round" style="transform-origin:366.25px 131.96px"/>
<line class="animable" x1="344.21" x2="388.29" y1="137.65" y2="137.65" fill="none" stroke="#263238" stroke-linecap="round" stroke-linejoin="round" style="transform-origin:366.25px 137.65px"/>
<line class="animable" x1="344.21" x2="388.29" y1="143.34" y2="143.34" fill="none" stroke="#263238" stroke-linecap="round" stroke-linejoin="round" style="transform-origin:366.25px 143.34px"/>
<line class="animable" x1="344.21" x2="388.29" y1="149.03" y2="149.03" fill="none" stroke="#263238" stroke-linecap="round" stroke-linejoin="round" style="transform-origin:366.25px 149.03px"/>
<line class="animable" x1="344.21" x2="388.29" y1="154.73" y2="154.73" fill="none" stroke="#263238" stroke-linecap="round" stroke-linejoin="round" style="transform-origin:366.25px 154.73px"/>
<line class="animable" x1="344.21" x2="388.29" y1="160.42" y2="160.42" fill="none" stroke="#263238" stroke-linecap="round" stroke-linejoin="round" style="transform-origin:366.25px 160.42px"/>
<line class="animable" x1="344.21" x2="388.29" y1="166.11" y2="166.11" fill="none" stroke="#263238" stroke-linecap="round" stroke-linejoin="round" style="transform-origin:366.25px 166.11px"/>
<line class="animable" x1="344.21" x2="388.29" y1="171.8" y2="171.8" fill="none" stroke="#263238" stroke-linecap="round" stroke-linejoin="round" style="transform-origin:366.25px 171.8px"/>
<path class="animable" d="M321.86,90.24a7.08,7.08,0,0,0,.34-2.09c0-2.59-2.63-2.74-5.21-2.74h-.65V84.8H327.6v.61c-2.93,0-4,1.87-4.91,4.64l-6,17.91c-.45,1.33-.83,2.32-2.24,2.32h-.12l-5.28-17.11L304.14,108c-.46,1.33-.84,2.32-2.25,2.32h-.11L294.1,85.41h-2.7V84.8h9.88v.61h-2.81l5.7,19.62h.23L308.7,92l-2-6.54H304V84.8h9.89v.61h-2.81l5.7,19.62H317Z" fill="#c9cedd" style="transform-origin:309.5px 97.56px"/>
<rect class="animable" x="343.24" y="79.13" width="45.36" height="41" fill="#c9cedd" stroke="#263238" stroke-linecap="round" stroke-linejoin="round" stroke-width="2px" style="transform-origin:365.92px 99.63px"/>
<path class="animable" d="M388.6,96.27a28,28,0,0,0-4.52.63c-6.89,1.5-8.69,11.39-16.48,11.39-6.9,0-7.49-9.29-17.38-10.49a10.92,10.92,0,0,0-7,1.24v21.09H388.6Z" fill="#263238" stroke="#263238" stroke-linecap="round" stroke-linejoin="round" style="transform-origin:365.91px 108.2px"/>
<path class="animable" d="m358.31 88.51a5.1 5.1 0 1 1-5.09-5.09 5.09 5.09 0 0 1 5.09 5.09z" fill="#fff" stroke="#263238" stroke-linecap="round" stroke-linejoin="round" style="transform-origin:353.21px 88.52px"/>
<rect class="animable" x="289.7" y="66.04" width="100.97" height="3.89" fill="#fff" stroke="#263238" stroke-linecap="round" stroke-linejoin="round" style="transform-origin:340.185px 67.985px"/>
<path class="animable" d="m384.37 205.83h-43.71a6.48 6.48 0 0 0-6.48 6.48v23.38a6.48 6.48 0 0 0 6.48 6.48h1.34c-1.36 3-4 7.6-8.17 10.33 0 0 8.87-0.62 18.11-10.33h32.41a6.48 6.48 0 0 0 6.48-6.48v-23.38a6.48 6.48 0 0 0-6.46-6.48z" fill="#263238" stroke="#263238" stroke-linecap="round" stroke-linejoin="round" style="transform-origin:362.33px 229.165px"/>
<path class="animable" d="m355 223.17a3.34 3.34 0 1 0-3.33 3.33 3.34 3.34 0 0 0 3.33-3.33z" fill="#c9cedd" stroke="#263238" stroke-linecap="round" stroke-linejoin="round" style="transform-origin:351.66px 223.16px"/>
<path class="animable" d="m366.33 223.17a3.33 3.33 0 1 0-3.33 3.33 3.34 3.34 0 0 0 3.33-3.33z" fill="#c9cedd" stroke="#263238" stroke-linecap="round" stroke-linejoin="round" style="transform-origin:363px 223.17px"/>
<path class="animable" d="m377.67 223.17a3.34 3.34 0 1 0-3.34 3.33 3.35 3.35 0 0 0 3.34-3.33z" fill="#c9cedd" stroke="#263238" stroke-linecap="round" stroke-linejoin="round" style="transform-origin:374.33px 223.16px"/>
</g>
<g class="animable" style="transform-origin:162.415px 163.287px">
<path class="animable" d="M144,76.63H216a6.46,6.46,0,0,1,6.46,6.46V133a0,0,0,0,1,0,0H137.57a0,0,0,0,1,0,0V83.09A6.46,6.46,0,0,1,144,76.63Z" fill="#c9cedd" stroke="#263238" stroke-linecap="round" stroke-linejoin="round" style="transform-origin:180.015px 104.815px"/>
<rect class="animable" x="137.57" y="124.95" width="84.85" height="8.02" fill="#263238" stroke="#263238" stroke-linecap="round" stroke-linejoin="round" style="transform-origin:179.995px 128.96px"/>
<rect class="animable" x="141.46" y="127.69" width="77.08" height="2.54" fill="#fff" stroke="#263238" stroke-linecap="round" stroke-linejoin="round" style="transform-origin:180px 128.96px"/>
<circle class="animable" cx="180" cy="102.21" r="11.72" fill="#263238" stroke="#263238" stroke-linecap="round" stroke-linejoin="round" style="transform-origin:180px 102.21px"/>
<polygon class="animable" points="174.71 94.92 187.36 102.22 174.71 109.52" fill="#fff" stroke="#263238" stroke-linecap="round" stroke-linejoin="round" style="transform-origin:181.035px 102.22px"/>
<rect class="animable" x="102.37" y="153.5" width="86.17" height="36.33" rx="2.82" fill="#263238" stroke="#263238" stroke-linecap="round" stroke-linejoin="round" style="transform-origin:145.455px 171.665px"/>
<path class="animable" d="M112.63,158.45l.42.7c-1.9,1.06-3.67,2.92-3.67,5.1a2.82,2.82,0,0,0,2.69,3c.28,0,.47-.14.47-.42s-.14-.37-.42-.42a1.65,1.65,0,0,1-1.21-1.76,2.29,2.29,0,0,1,2.46-2.23,2.52,2.52,0,0,1,2.51,2.6,3.15,3.15,0,0,1-3.3,3.11,3.76,3.76,0,0,1-4-3.9C108.55,161.7,110.5,159.66,112.63,158.45Zm8.59,0,.42.7c-1.91,1.06-3.67,2.92-3.67,5.1a2.81,2.81,0,0,0,2.69,3c.28,0,.47-.14.47-.42s-.14-.37-.42-.42a1.65,1.65,0,0,1-1.21-1.76,2.28,2.28,0,0,1,2.46-2.23,2.52,2.52,0,0,1,2.51,2.6,3.16,3.16,0,0,1-3.3,3.11,3.77,3.77,0,0,1-4-3.9C117.13,161.7,119.08,159.66,121.22,158.45Z" fill="#c9cedd" style="transform-origin:116.524px 163.294px"/>
<line class="animable" x1="129.44" x2="178.48" y1="165.85" y2="165.85" fill="none" stroke="#fff" stroke-linecap="round" stroke-linejoin="round" style="transform-origin:153.96px 165.85px"/>
<line class="animable" x1="129.44" x2="178.48" y1="170.06" y2="170.06" fill="none" stroke="#fff" stroke-linecap="round" stroke-linejoin="round" style="transform-origin:153.96px 170.06px"/>
<line class="animable" x1="129.44" x2="178.48" y1="174.27" y2="174.27" fill="none" stroke="#fff" stroke-linecap="round" stroke-linejoin="round" style="transform-origin:153.96px 174.27px"/>
<line class="animable" x1="129.44" x2="178.48" y1="178.49" y2="178.49" fill="none" stroke="#fff" stroke-linecap="round" stroke-linejoin="round" style="transform-origin:153.96px 178.49px"/>
<circle class="animable" cx="166.82" cy="227.83" r="18.57" fill="#263238" stroke="#263238" stroke-linecap="round" stroke-linejoin="round" style="transform-origin:166.82px 227.83px;transform:rotate(-9.27deg)"/>
<circle class="animable" cx="166.82" cy="227.83" r="15.67" fill="#fff" stroke="#263238" stroke-linecap="round" stroke-linejoin="round" style="transform-origin:166.82px 227.83px;transform:rotate(-48.71deg)"/>
<polyline class="animable" points="166.82 216.5 166.82 227.83 174.48 227.83" fill="none" stroke="#263238" stroke-linecap="round" stroke-linejoin="round" stroke-width="2px" style="transform-origin:170.65px 222.165px"/>
</g>
<g class="animable" style="transform-origin:249.335px 279.215px">
<path class="animable" d="m283 227.87s10.65 22.73 10.65 23.93-9.45 6.34-11.25 7.42a43.72 43.72 0 0 1-4.31 2.15l1.08 10.53s16.27-3.71 23.09-7.42 6.58-7.9 5-14.12-12.09-30.26-12.09-30.26z" fill="#fff" style="transform-origin:293.136px 246px"/>
<g class="animable" clip-path="url(#c)" style="transform-origin:296.916px 245.165px">
<path class="animable" d="m302.23 264.48c6.82-3.71 6.58-7.9 5-14.12s-12.09-30.26-12.09-30.26l-1.7 1.08-0.54 1s9.81 24.08 10.4 32.1c0.4 5.39-10.45 12.11-17.62 15.95 5.32-1.41 12.56-3.58 16.55-5.75z" fill="#c9cedd" opacity=".5" style="mix-blend-mode:multiply;transform-origin:296.916px 245.165px"/>
</g>
<path class="animable" d="m283 227.87s10.65 22.73 10.65 23.93-9.45 6.34-11.25 7.42a43.72 43.72 0 0 1-4.31 2.15l1.08 10.53s16.27-3.71 23.09-7.42 6.58-7.9 5-14.12-12.09-30.26-12.09-30.26z" fill="none" stroke="#263238" stroke-linecap="round" stroke-linejoin="round" style="transform-origin:293.136px 246px"/>
<path class="animable" d="M206.16,222.85s-7.77,28.47-8,33.5,15.43,14.95,16,15.55-.89-17.3-.89-17.3l5.31-26Z" fill="#fff" style="transform-origin:208.369px 247.382px"/>
<g class="animable" clip-path="url(#b)" style="transform-origin:206.227px 247.382px">
<path class="animable" d="M209.72,225.18l-.17-.77-3.39-1.56s-7.77,28.47-8,33.5,15.43,14.95,16,15.55c.23.24.14-2.44-.05-5.75-4.66-3.95-11.35-9.51-12.13-11.85" fill="#c9cedd" opacity=".5" style="mix-blend-mode:multiply;transform-origin:206.227px 247.382px"/>
</g>
<path class="animable" d="M206.16,222.85s-7.77,28.47-8,33.5,15.43,14.95,16,15.55-.89-17.3-.89-17.3l5.31-26Z" fill="none" stroke="#263238" stroke-linecap="round" stroke-linejoin="round" style="transform-origin:208.369px 247.382px"/>
<path class="animable" d="m242.65 194.25s-3 2.16-8.85 2.4-6.13-4-13.4-4c-8.81 0-19.86 27.87-19.86 27.87s5.5 5.39 10.89 7.66a38.62 38.62 0 0 0 9.33 2.75l0.84 18.31h59.34l0.71-18.31 18.55-12.03s-9.1-16.27-13.52-22.37-11.85-3.83-14.12-2.28-9 1.92-11.48 1.56a99.14 99.14 0 0 1-9.58-2.63s-3.82-3.18-8.85 1.07z" fill="#c9cedd" stroke="#263238" stroke-linecap="round" stroke-linejoin="round" style="transform-origin:250.37px 220.639px"/>
<line class="animable" x1="221.36" x2="221.12" y1="200.71" y2="231.1" fill="none" stroke="#263238" stroke-linecap="round" stroke-linejoin="round" stroke-width=".5px" style="transform-origin:221.24px 215.905px"/>
<path class="animable" d="M223.51,203.47s.84,14.83,4,23.09" fill="none" stroke="#263238" stroke-linecap="round" stroke-linejoin="round" stroke-width=".5px" style="transform-origin:225.51px 215.015px"/>
<path class="animable" d="m228.06 227.75a40.79 40.79 0 0 0 2.51 5.86" fill="none" stroke="#263238" stroke-linecap="round" stroke-linejoin="round" stroke-width=".5px" style="transform-origin:229.315px 230.68px"/>
<path class="animable" d="m225.42 201.79a94.91 94.91 0 0 0 4.79 15.79" fill="none" stroke="#263238" stroke-linecap="round" stroke-linejoin="round" stroke-width=".5px" style="transform-origin:227.815px 209.685px"/>
<path class="animable" d="m277 204.42s-2.87 11.73-5.39 17" fill="none" stroke="#263238" stroke-linecap="round" stroke-linejoin="round" stroke-width=".5px" style="transform-origin:274.305px 212.92px"/>
<line class="animable" x1="281.65" x2="281.53" y1="230.98" y2="207.29" fill="none" stroke="#263238" stroke-linecap="round" stroke-linejoin="round" stroke-width=".5px" style="transform-origin:281.59px 219.135px"/>
<path class="animable" d="m280.34 207.77s-2.16 15-7.42 22.85" fill="none" stroke="#263238" stroke-linecap="round" stroke-linejoin="round" stroke-width=".5px" style="transform-origin:276.63px 219.195px"/>
<path class="animable" d="m277.71 227.63s-2.4 4.55-4.07 6.94" fill="none" stroke="#263238" stroke-linecap="round" stroke-linejoin="round" stroke-width=".5px" style="transform-origin:275.675px 231.1px"/>
<path class="animable" d="m239.3 196.05s1.68 10.29 4.07 15.55 6.58 6.34 10.17 4.79 6.22-9.22 6-19" fill="none" stroke="#263238" stroke-linecap="round" stroke-linejoin="round" stroke-width=".5px" style="transform-origin:249.426px 206.545px"/>
<path class="animable" d="m230.81 174.51s-2.28-3.94-4.07-1.91 1.44 6.7 3.23 8.25 3.11 0.6 3-1.07-2.16-5.27-2.16-5.27z" fill="#c9cedd" stroke="#263238" stroke-linecap="round" stroke-linejoin="round" style="transform-origin:229.596px 176.827px"/>
<path class="animable" d="m230.81 174.51s-2.28-3.94-4.07-1.91 1.44 6.7 3.23 8.25 3.11 0.6 3-1.07-2.16-5.27-2.16-5.27z" fill="#fff" opacity=".5" style="transform-origin:229.596px 176.827px"/>
<path class="animable" d="m230.81 174.51s-2.28-3.94-4.07-1.91 1.44 6.7 3.23 8.25 3.11 0.6 3-1.07-2.16-5.27-2.16-5.27z" fill="none" stroke="#263238" stroke-linecap="round" stroke-linejoin="round" style="transform-origin:229.596px 176.827px"/>
<path class="animable" d="m267 174.51s2.27-3.94 4.07-1.91-1.44 6.7-3.23 8.25-3.12 0.6-3-1.07 2.16-5.27 2.16-5.27z" fill="#c9cedd" stroke="#263238" stroke-linecap="round" stroke-linejoin="round" style="transform-origin:268.215px 176.827px"/>
<path class="animable" d="m267 174.51s2.27-3.94 4.07-1.91-1.44 6.7-3.23 8.25-3.12 0.6-3-1.07 2.16-5.27 2.16-5.27z" fill="#fff" opacity=".5" style="transform-origin:268.215px 176.827px"/>
<path class="animable" d="m267 174.51s2.27-3.94 4.07-1.91-1.44 6.7-3.23 8.25-3.12 0.6-3-1.07 2.16-5.27 2.16-5.27z" fill="none" stroke="#263238" stroke-linecap="round" stroke-linejoin="round" style="transform-origin:268.215px 176.827px"/>
<path class="animable" d="m241.57 193.42a128.86 128.86 0 0 0 4.31 15.07c2.16 5.38 6.22 5.38 7.9 1.91s2.75-16.4 2.75-16.4-11.25 1.57-14.96-0.58z" fill="#fff" stroke="#263238" stroke-linecap="round" stroke-linejoin="round" style="transform-origin:249.05px 203.111px"/>
<path class="animable" d="m231.05 175.83s3.11 11 9 17.47 8 8 11.13 7.53 6.46-4.54 11.12-13 5-14.95 5.39-15.55-1-12.56-7.66-17.71-14.12-7.41-20.58-1.79-10.56 14.79-8.4 23.05z" fill="#fff" style="transform-origin:249.11px 175.203px"/>
<g class="animable" clip-path="url(#a)" style="transform-origin:249.094px 169.155px">
<path class="animable" d="M260,154.53c-6.7-5.14-14.12-7.41-20.58-1.79s-10.53,14.83-8.37,23.09c0,0,.59,2.12,1.76,5a3.78,3.78,0,0,1,.15-1.09c1.43-4.53,5.65-13.3,19.85-9.28,11.28,3.18,9.9,13.1,8.85,18.39l.61-1.1c4.67-8.49,5-14.95,5.39-15.55S266.7,159.68,260,154.53Z" fill="#c9cedd" opacity=".5" style="mix-blend-mode:multiply;transform-origin:249.094px 169.155px"/>
</g>
<path class="animable" d="m231.05 175.83s3.11 11 9 17.47 8 8 11.13 7.53 6.46-4.54 11.12-13 5-14.95 5.39-15.55-1-12.56-7.66-17.71-14.12-7.41-20.58-1.79-10.56 14.79-8.4 23.05z" fill="none" stroke="#263238" stroke-linecap="round" stroke-linejoin="round" style="transform-origin:249.11px 175.203px"/>
<path class="animable" d="M251.15,181.57a48.77,48.77,0,0,0-.6,7.06c.12,2.39.84,3.11-.24,3.35s-2.27-1.44-2.27-1.44" fill="none" stroke="#263238" stroke-linecap="round" stroke-linejoin="round" style="transform-origin:249.595px 186.787px"/>
<path class="animable" d="M239.18,183.49a4.24,4.24,0,0,0,4.79.12" fill="none" stroke="#263238" stroke-linecap="round" stroke-linejoin="round" style="transform-origin:241.575px 183.891px"/>
<path class="animable" d="M254.38,183.49a4.23,4.23,0,0,0,4.78.12" fill="none" stroke="#263238" stroke-linecap="round" stroke-linejoin="round" style="transform-origin:256.77px 183.891px"/>
<path class="animable" d="m246.82 179.46s-2.28-5.63-9.81-3" fill="none" stroke="#263238" stroke-linecap="round" stroke-linejoin="round" style="transform-origin:241.915px 177.61px"/>
<path class="animable" d="m253.09 178.77s1.91-5.51 8.73-2.28" fill="none" stroke="#263238" stroke-linecap="round" stroke-linejoin="round" style="transform-origin:257.455px 177.122px"/>
<path class="animable" d="m248.27 183.9c0 3.08-3.53 5.57-7.89 5.57s-7.9-2.49-7.9-5.57 3.3-4.36 7.66-4.36 8.13 1.29 8.13 4.36z" fill="none" stroke="#263238" stroke-linecap="round" stroke-linejoin="round" style="transform-origin:240.375px 184.505px"/>
<path class="animable" d="m266.46 183.9c0 3.08-3.54 5.57-7.9 5.57s-7.89-2.49-7.89-5.57 3.29-4.36 7.65-4.36 8.14 1.29 8.14 4.36z" fill="none" stroke="#263238" stroke-linecap="round" stroke-linejoin="round" style="transform-origin:258.565px 184.505px"/>
<path class="animable" d="M165.63,279.83l-.49,121.23a1.44,1.44,0,0,0,1.44,1.44h0a1.43,1.43,0,0,0,1.43-1.39L171.47,280Z" fill="#fff" stroke="#263238" stroke-linecap="round" stroke-linejoin="round" style="transform-origin:168.305px 341.165px"/>
<path class="animable" d="M157.47,308.17,157,433.5a1.43,1.43,0,0,0,1.44,1.44h0a1.44,1.44,0,0,0,1.44-1.38l3.45-125.23Z" fill="#fff" stroke="#263238" stroke-linecap="round" stroke-linejoin="round" style="transform-origin:160.165px 371.555px"/>
<path class="animable" d="M333.23,279.83l.49,121.23a1.43,1.43,0,0,1-1.43,1.44h0a1.44,1.44,0,0,1-1.44-1.39L327.4,280Z" fill="#fff" stroke="#263238" stroke-linecap="round" stroke-linejoin="round" style="transform-origin:330.56px 341.165px"/>
<path class="animable" d="M341.4,308.17l.49,125.33a1.43,1.43,0,0,1-1.44,1.44h0a1.43,1.43,0,0,1-1.43-1.38l-3.46-125.23Z" fill="#fff" stroke="#263238" stroke-linecap="round" stroke-linejoin="round" style="transform-origin:338.725px 371.555px"/>
<path class="animable" d="M214.29,313.38,214,424.62a1.08,1.08,0,0,0,.91,1.19h0a1.07,1.07,0,0,0,.92-1.14L218,313.51Z" fill="#fff" stroke="#263238" stroke-linecap="round" stroke-linejoin="round" style="transform-origin:215.997px 369.595px"/>
<path class="animable" d="M284.7,309.8l.27,97.08a.92.92,0,0,1-.78,1h0a.91.91,0,0,1-.77-1l-1.85-97Z" fill="#fff" stroke="#263238" stroke-linecap="round" stroke-linejoin="round" style="transform-origin:283.272px 358.84px"/>
<path class="animable" d="M213.2,309.8l.27,97.08a.92.92,0,0,1-.78,1h0a.91.91,0,0,1-.77-1l-1.85-97Z" fill="#fff" stroke="#263238" stroke-linecap="round" stroke-linejoin="round" style="transform-origin:211.772px 358.84px"/>
<path class="animable" d="M282.69,313.38,283,424.62a1.08,1.08,0,0,1-.91,1.19h0a1.08,1.08,0,0,1-.92-1.14L279,313.51Z" fill="#fff" stroke="#263238" stroke-linecap="round" stroke-linejoin="round" style="transform-origin:281.003px 369.595px"/>
<ellipse class="animable" cx="248" cy="311" rx="44.5" ry="10.17" fill="#fff" stroke="#263238" stroke-linecap="round" stroke-linejoin="round" style="transform-origin:248px 311px"/>
<path class="animable" d="m226.33 397.33s-2.33 3.34-0.66 5 3.33 1 3.16 2.67-2.83 7.33-5.16 13.33 2.5 12 7 10.34 4-18.34 4.66-21.34 1.17-3.5 1-6.33-0.33-5.83-2.5-6.17-6.5 1.34-7.5 2.5z" fill="#fff" stroke="#263238" stroke-linecap="round" stroke-linejoin="round" style="transform-origin:229.714px 411.868px"/>
<path class="animable" d="m233.48 424.07c-3-1.14-7.6-0.91-10.19-0.65 0.87 3.77 4.2 6.42 7.38 5.25 1.33-0.49 2.2-2.27 2.81-4.6z" fill="#c9cedd" stroke="#263238" stroke-linecap="round" stroke-linejoin="round" style="transform-origin:228.385px 426.078px"/>
<path class="animable" d="m221.17 390s4.83 8.17 6.16 10.33 5.84 1.5 6.34-1.5-1.84-11.33-1.84-11.33l-10 2.5z" fill="#fff" stroke="#263238" stroke-linecap="round" stroke-linejoin="round" style="transform-origin:227.455px 394.55px"/>
<path class="animable" d="m209.67 377s-1.34 2.17-0.67 3.67 2.5 5.83 3.67 8 6.5 3.5 12.66 2.5 9.67-3.84 9.84-6.34-1-5.83-1.84-9.83-3-3.83-6-3.83-15.16 3.5-17.66 5.83z" fill="#c9cedd" stroke="#263238" stroke-linecap="round" stroke-linejoin="round" style="transform-origin:222px 381.339px"/>
<path class="animable" d="M227.67,328c.09-4.1,2.46-6.12,2.64-8.93A35.34,35.34,0,0,0,229.4,308l-4.56-6.23c-13.12.17-22.52.39-22.67.44-.5.16-.84,3-1.17,5.33,0,0-5.57.71-4.57,16.21.14,2.16,5.76,27.15,6.17,30,2.5,17.41,8.07,26.13,8.07,26.13s.5,2.17,7,1.67,13-4.83,13-4.83S227.33,342.83,227.67,328Z" fill="#263238" stroke="#263238" stroke-linecap="round" stroke-linejoin="round" style="transform-origin:213.49px 341.697px"/>
<path class="animable" d="m200.1 305s-6.89 1-11.11 5.82-0.64 8 7.56 7.14 17.66-9.25 18.06-9.7-8.55-6.15-14.51-3.26z" fill="#fff" stroke="#263238" stroke-linecap="round" stroke-linejoin="round" style="transform-origin:200.916px 311.143px"/>
<path class="animable" d="m212.33 308a65.07 65.07 0 0 1 13 2c5.67 1.67 15.67 5 18 5s1.67-8.67 1.67-10.33-30-2.67-33.67-2.67 1 6 1 6z" fill="#fff" stroke="#263238" stroke-linecap="round" stroke-linejoin="round" style="transform-origin:227.505px 308.5px"/>
<path class="animable" d="m245 304.67s-2.67 1.33-3.67 6.33-2.33 7.67-0.33 9 10.67 2.33 12 1 5-8 5.67-12.33-13.67-4-13.67-4z" fill="#c9cedd" stroke="#263238" stroke-linecap="round" stroke-linejoin="round" style="transform-origin:249.327px 313.146px"/>
<path class="animable" d="m256.33 306.33a20.89 20.89 0 0 0-3.66 6 55.76 55.76 0 0 0-1.67 7 65.06 65.06 0 0 1 9.33 3.34c5.34 2.33 14.34 4 23 6s11 4 14 4 6.67-2.34 11.34-8 0.66-17.67-4-21.34-29.67-6.66-33-5.66-15.34 8.66-15.34 8.66z" fill="#263238" stroke="#263238" stroke-linecap="round" stroke-linejoin="round" style="transform-origin:280.875px 315.072px"/>
<path class="animable" d="M193.79,318.05a20.09,20.09,0,0,0-3.9-8.19c-.31.29-.61.59-.9.92C185.28,315,187.6,318,193.79,318.05Z" fill="#c9cedd" stroke="#263238" stroke-linecap="round" stroke-linejoin="round" style="transform-origin:190.5px 313.955px"/>
<path class="animable" d="m227.16 320.69s-3.44 36.81-10.46 42.54" fill="none" stroke="#fff" stroke-linecap="round" stroke-linejoin="round" stroke-width=".5px" style="transform-origin:221.93px 341.96px"/>
<path class="animable" d="m224.73 355.63s-2.73 12-9.89 16.77" fill="none" stroke="#fff" stroke-linecap="round" stroke-linejoin="round" stroke-width=".5px" style="transform-origin:219.785px 364.015px"/>
<path class="animable" d="M269,314s-10.67.67-3.67,5.33S285,327,285,327" fill="none" stroke="#fff" stroke-linecap="round" stroke-linejoin="round" stroke-width=".5px" style="transform-origin:273.975px 320.5px"/>
<path class="animable" d="M346.46,301.39l-3.6-3.24-8.32-18a4.79,4.79,0,0,0-4.36-2.71H168.58a4.79,4.79,0,0,0-4.37,2.71l-10.37,22.42-1.71-.63v5.13l.08-.06a2.85,2.85,0,0,0,2.87,2.43H343.67a2.81,2.81,0,0,0,2.87-2.65Z" fill="#263238" stroke="#263238" stroke-linecap="round" stroke-linejoin="round" style="transform-origin:249.335px 293.44px"/>
<path class="animable" d="m343.67 304.75h-188.59a2.76 2.76 0 0 1-2.64-3.86l11.77-25.43a4.77 4.77 0 0 1 4.37-2.71h161.6a4.77 4.77 0 0 1 4.36 2.71l11.77 25.43a2.76 2.76 0 0 1-2.64 3.86z" fill="#fff" stroke="#263238" stroke-linecap="round" stroke-linejoin="round" style="transform-origin:249.375px 288.751px"/>
<path class="animable" d="M164.63,287.67s-4.27,2.93-1.6,4,33.36.27,37.1-.8,8-10.94,8-12.54-5.38-2.75-7.36-2.84-28.14,1.5-28.14,1.5Z" fill="#c9cedd" opacity=".5" style="mix-blend-mode:multiply;transform-origin:185.141px 283.831px"/>
<ellipse class="animable" cx="317.29" cy="288.2" rx="10.94" ry="4.54" fill="#c9cedd" opacity=".5" style="mix-blend-mode:multiply;transform-origin:317.29px 288.2px"/>
<ellipse class="animable" cx="247.64" cy="291.01" rx="39.23" ry="7.34" fill="#c9cedd" opacity=".5" style="mix-blend-mode:multiply;transform-origin:247.64px 291.01px"/>
<path class="animable" d="m309.29 270.34s-0.72-2.87-3.11-1.91-2.15 7.3-1.68 10.89 3.71 1.91 3.71 1.91v-2.15s-1.19 0.95-1.79-0.36-0.48-7.9 0.12-7.78 1.79 2.15 1.79 2.15 0.36-0.23 0.96-2.75z" fill="#c9cedd" stroke="#263238" stroke-linecap="round" stroke-linejoin="round" style="transform-origin:306.742px 274.928px"/>
<path class="animable" d="m307.57 270.82v15.72c0 1.85 4.25 3.35 9.5 3.35s9.49-1.5 9.49-3.35v-15.72z" fill="#c9cedd" stroke="#263238" stroke-linecap="round" stroke-linejoin="round" style="transform-origin:317.065px 280.355px"/>
<path class="animable" d="m326.56 270.82c0 1.6-4.25 2.89-9.49 2.89s-9.5-1.29-9.5-2.89 4.25-2.89 9.5-2.89 9.49 1.3 9.49 2.89z" fill="#fff" stroke="#263238" stroke-linecap="round" stroke-linejoin="round" style="transform-origin:317.065px 270.82px"/>
<path class="animable" d="m325.32 270.82c0 1.39-3.7 2.51-8.25 2.51s-8.26-1.12-8.26-2.51 3.7-2.51 8.26-2.51 8.25 1.12 8.25 2.51z" fill="#fff" stroke="#263238" stroke-linecap="round" stroke-linejoin="round" style="transform-origin:317.065px 270.82px"/>
<path class="animable" d="m310.7 272.42a22.72 22.72 0 0 0 12.73 0 22.72 22.72 0 0 0-12.73 0z" fill="#263238" stroke="#263238" stroke-linecap="round" stroke-linejoin="round" style="transform-origin:317.065px 272.42px"/>
<polygon class="animable" points="163.45 278 163.57 283.38 199.82 283.74 199.82 277.52" fill="#fff" stroke="#263238" stroke-linecap="round" stroke-linejoin="round" style="transform-origin:181.635px 280.63px"/>
<polygon class="animable" points="199.82 283.74 205.09 272.38 205.09 269.03 199.58 278.6" fill="#fff" stroke="#263238" stroke-linecap="round" stroke-linejoin="round" style="transform-origin:202.335px 276.385px"/>
<polygon class="animable" points="163.45 282.9 163.57 288.29 199.82 288.65 199.82 282.43" fill="#fff" stroke="#263238" stroke-linecap="round" stroke-linejoin="round" style="transform-origin:181.635px 285.54px"/>
<polygon class="animable" points="199.82 288.65 205.09 277.28 205.09 273.93 199.58 283.5" fill="#fff" stroke="#263238" stroke-linecap="round" stroke-linejoin="round" style="transform-origin:202.335px 281.29px"/>
<path class="animable" d="M177.45,264.36s.84-1.67-.36-2.39-2.51,1-3.23,1.55-15.79,10.53-16.27,12.09,0,5,3.23,5.38,6.1-1.79,7.54-2.15,2-.48,2-.48l9.93-13.4Z" fill="#fff" stroke="#263238" stroke-linecap="round" stroke-linejoin="round" style="transform-origin:168.861px 271.415px"/>
<path class="animable" d="m160.82 281c3.23 0.36 6.1-1.79 7.54-2.15s2-0.48 2-0.48l0.36-0.49-9.33-1.9a3.13 3.13 0 0 0-3.83-0.36c-0.45 1.54 0.03 5.01 3.26 5.38z" fill="#fff" stroke="#263238" stroke-linecap="round" stroke-linejoin="round" style="transform-origin:164.068px 278.084px"/>
<path class="animable" d="M161.42,276h28c8.74,0,11.37-.48,11.37-.48l5.38-11.13s-17,1.08-22.25.72a39.59,39.59,0,0,1-6.46-.72Z" fill="#fff" stroke="#263238" stroke-linecap="round" stroke-linejoin="round" style="transform-origin:183.795px 270.195px"/>
<path class="animable" d="M161.42,276l.48,2.15s22.73.12,28.71.12,10.53.24,10.53.24l-.36-3Z" fill="#fff" stroke="#263238" stroke-linecap="round" stroke-linejoin="round" style="transform-origin:181.28px 277.01px"/>
<polygon class="animable" points="201.14 278.48 206.16 266.99 206.16 264.36 200.78 275.49" fill="#fff" stroke="#263238" stroke-linecap="round" stroke-linejoin="round" style="transform-origin:203.47px 271.42px"/>
<path class="animable" d="m281.9 291.92h-68.55a1.15 1.15 0 0 1-1.16-1.15h0a1.15 1.15 0 0 1 1.16-1.15h68.55a1.14 1.14 0 0 1 1.15 1.15h0a1.14 1.14 0 0 1-1.15 1.15z" fill="#fff" stroke="#263238" stroke-linecap="round" stroke-linejoin="round" style="transform-origin:247.62px 290.77px"/>
<path class="animable" d="m282.48 289.6h-69.72a1 1 0 0 1-1-0.94l-3.79-45.55a1 1 0 0 1 1-1.12h77.31a1 1 0 0 1 1 1.12l-3.79 45.55a1 1 0 0 1-1.01 0.94z" fill="#fff" stroke="#263238" stroke-linecap="round" stroke-linejoin="round" style="transform-origin:247.625px 265.795px"/>
<path class="animable" d="m254.2 266.58c0 2.72-2.95 4.92-6.58 4.92s-6.59-2.2-6.59-4.92 2.95-4.91 6.59-4.91 6.58 2.2 6.58 4.91z" fill="#fff" stroke="#263238" stroke-linecap="round" stroke-linejoin="round" style="transform-origin:247.615px 266.585px"/>
<path class="animable" d="M322.33,231a5.94,5.94,0,0,0,2.13-3.33,6.15,6.15,0,0,0-.07-3" fill="none" stroke="#263238" stroke-linecap="round" stroke-linejoin="round" style="transform-origin:323.471px 227.835px"/>
<path class="animable" d="m314.35 266.66s6.65-4 4.48-8.57-9.51-7.6-9.51-14.72c0-6.14 6.53-8.41 10.79-10.87" fill="none" stroke="#263238" stroke-linecap="round" stroke-linejoin="round" style="transform-origin:314.715px 249.58px"/>
<path class="animable" d="m320.49 266.53s3.71-2.47 3.71-6.39c0-2.63-2.81-4.35-6.52-8.58" fill="none" stroke="#263238" stroke-linecap="round" stroke-linejoin="round" style="transform-origin:320.94px 259.045px"/>
<path class="animable" d="M315.63,249s-2.43-1.91-.64-5.5" fill="none" stroke="#263238" stroke-linecap="round" stroke-linejoin="round" style="transform-origin:314.981px 246.25px"/>
<path class="animable" d="M259.33,144.25c1.19-.25,3.74-1.23,5.46-5.22a.5.5,0,0,0-.26-.66.51.51,0,0,0-.66.26c-1.58,3.66-3.84,4.47-4.78,4.65a11.48,11.48,0,0,0,2.63-7.23c0-6.94-6.43-12.56-14.36-12.56S233,129.11,233,136.05a11.48,11.48,0,0,0,2.4,7c-1.51-.08-4.06.56-7.29,4.33a.51.51,0,0,0,0,.71.52.52,0,0,0,.33.12.49.49,0,0,0,.38-.18c4.13-4.81,6.86-4,7.41-3.78a14.7,14.7,0,0,0-2.61,1.83c-4.61,4.15-7.42,12-7.06,18.54a24.11,24.11,0,0,0,4.55,12,27.9,27.9,0,0,0,8.13-9.1,76.41,76.41,0,0,0,4-8.17c0,2.93.38,6.47,1.92,9a12.76,12.76,0,0,0,11.22,6.56,10.57,10.57,0,0,0,2.35-.23.5.5,0,0,0,.32-.25c3.86.82,7.7.75,8.29-.07.95-1.31,2.3-5.4,2.75-10.4C270.91,155.48,265.57,148.12,259.33,144.25Zm-13.24,23.49c-1.94-3.17-1.88-8.34-1.65-11.31l.13-.34a20.36,20.36,0,0,0,8.13,15.67,14.65,14.65,0,0,0,4.43,2.07C254.68,174,249.64,173.53,246.09,167.74Z" fill="#263238" style="transform-origin:248.351px 150.055px"/>
<path class="animable" d="M246.26,152s-.82,6.06,6.88,12,15,3.6,15,3.6" fill="none" stroke="#fff" stroke-linecap="round" stroke-linejoin="round" stroke-width=".5px" style="transform-origin:257.187px 160.027px"/>
<path class="animable" d="m247.39 150s8.11 11.81 19.31 8.73" fill="none" stroke="#fff" stroke-linecap="round" stroke-linejoin="round" stroke-width=".5px" style="transform-origin:257.045px 154.621px"/>
<path class="animable" d="M243.38,146.07a7.83,7.83,0,0,0-8.11.62c-4.31,2.87-6.47,9.65-6.47,9.65" fill="none" stroke="#fff" stroke-linecap="round" stroke-linejoin="round" stroke-width=".5px" style="transform-origin:236.09px 150.781px"/>
<path class="animable" d="M243.59,149.36s-3.49-.93-5.65,1.23a13.92,13.92,0,0,0-2.67,3.29" fill="none" stroke="#fff" stroke-linecap="round" stroke-linejoin="round" stroke-width=".5px" style="transform-origin:239.43px 151.52px"/>
</g>
<defs>
<clipPath id="c">
<path d="m283 227.87s10.65 22.73 10.65 23.93-9.45 6.34-11.25 7.42a43.72 43.72 0 0 1-4.31 2.15l1.08 10.53s16.27-3.71 23.09-7.42 6.58-7.9 5-14.12-12.09-30.26-12.09-30.26z" fill="#fff" stroke="#263238" stroke-linecap="round" stroke-linejoin="round"/>
</clipPath>
<clipPath id="b">
<path d="M206.16,222.85s-7.77,28.47-8,33.5,15.43,14.95,16,15.55-.89-17.3-.89-17.3l5.31-26Z" fill="#fff" stroke="#263238" stroke-linecap="round" stroke-linejoin="round"/>
</clipPath>
<clipPath id="a">
<path d="m231.05 175.83s3.11 11 9 17.47 8 8 11.13 7.53 6.46-4.54 11.12-13 5-14.95 5.39-15.55-1-12.56-7.66-17.71-14.12-7.41-20.58-1.79-10.56 14.79-8.4 23.05z" fill="#fff" stroke="#263238" stroke-linecap="round" stroke-linejoin="round"/>
</clipPath>
</defs>
</svg>
